solid OpenSCAD_Model
  facet normal 0.978148 0.207911 0
    outer loop
      vertex 4.6 0 28
      vertex 4.20231 1.87099 0
      vertex 4.20231 1.87099 28
    endloop
  endfacet
  facet normal 0.978148 0.207911 0
    outer loop
      vertex 4.20231 1.87099 0
      vertex 4.6 0 28
      vertex 4.6 0 0
    endloop
  endfacet
  facet normal 0.809017 0.587785 0
    outer loop
      vertex 4.20231 1.87099 28
      vertex 3.078 3.41847 0
      vertex 3.078 3.41847 28
    endloop
  endfacet
  facet normal 0.809017 0.587785 0
    outer loop
      vertex 3.078 3.41847 0
      vertex 4.20231 1.87099 28
      vertex 4.20231 1.87099 0
    endloop
  endfacet
  facet normal 0.499999 0.866026 -0
    outer loop
      vertex 3.078 3.41847 0
      vertex 1.42148 4.37486 28
      vertex 3.078 3.41847 28
    endloop
  endfacet
  facet normal 0.499999 0.866026 0
    outer loop
      vertex 1.42148 4.37486 28
      vertex 3.078 3.41847 0
      vertex 1.42148 4.37486 0
    endloop
  endfacet
  facet normal 0.104528 0.994522 -0
    outer loop
      vertex 1.42148 4.37486 0
      vertex -0.480831 4.5748 28
      vertex 1.42148 4.37486 28
    endloop
  endfacet
  facet normal 0.104528 0.994522 0
    outer loop
      vertex -0.480831 4.5748 28
      vertex 1.42148 4.37486 0
      vertex -0.480831 4.5748 0
    endloop
  endfacet
  facet normal -0.309015 0.951057 0
    outer loop
      vertex -0.480831 4.5748 0
      vertex -2.3 3.98372 28
      vertex -0.480831 4.5748 28
    endloop
  endfacet
  facet normal -0.309015 0.951057 0
    outer loop
      vertex -2.3 3.98372 28
      vertex -0.480831 4.5748 0
      vertex -2.3 3.98372 0
    endloop
  endfacet
  facet normal -0.669132 0.743144 0
    outer loop
      vertex -2.3 3.98372 0
      vertex -3.72148 2.70381 28
      vertex -2.3 3.98372 28
    endloop
  endfacet
  facet normal -0.669132 0.743144 0
    outer loop
      vertex -3.72148 2.70381 28
      vertex -2.3 3.98372 0
      vertex -3.72148 2.70381 0
    endloop
  endfacet
  facet normal -0.913545 0.406737 0
    outer loop
      vertex -4.49948 0.956394 0
      vertex -3.72148 2.70381 28
      vertex -3.72148 2.70381 0
    endloop
  endfacet
  facet normal -0.913545 0.406737 0
    outer loop
      vertex -3.72148 2.70381 28
      vertex -4.49948 0.956394 0
      vertex -4.49948 0.956394 28
    endloop
  endfacet
  facet normal -1 0 0
    outer loop
      vertex -4.49948 -0.956394 0
      vertex -4.49948 0.956394 28
      vertex -4.49948 0.956394 0
    endloop
  endfacet
  facet normal -1 -0 0
    outer loop
      vertex -4.49948 0.956394 28
      vertex -4.49948 -0.956394 0
      vertex -4.49948 -0.956394 28
    endloop
  endfacet
  facet normal -0.913545 -0.406737 0
    outer loop
      vertex -3.72148 -2.70381 0
      vertex -4.49948 -0.956394 28
      vertex -4.49948 -0.956394 0
    endloop
  endfacet
  facet normal -0.913545 -0.406737 0
    outer loop
      vertex -4.49948 -0.956394 28
      vertex -3.72148 -2.70381 0
      vertex -3.72148 -2.70381 28
    endloop
  endfacet
  facet normal -0.669132 -0.743144 0
    outer loop
      vertex -3.72148 -2.70381 0
      vertex -2.3 -3.98372 28
      vertex -3.72148 -2.70381 28
    endloop
  endfacet
  facet normal -0.669132 -0.743144 -0
    outer loop
      vertex -2.3 -3.98372 28
      vertex -3.72148 -2.70381 0
      vertex -2.3 -3.98372 0
    endloop
  endfacet
  facet normal -0.309015 -0.951057 0
    outer loop
      vertex -2.3 -3.98372 0
      vertex -0.480831 -4.5748 28
      vertex -2.3 -3.98372 28
    endloop
  endfacet
  facet normal -0.309015 -0.951057 -0
    outer loop
      vertex -0.480831 -4.5748 28
      vertex -2.3 -3.98372 0
      vertex -0.480831 -4.5748 0
    endloop
  endfacet
  facet normal 0.104528 -0.994522 0
    outer loop
      vertex -0.480831 -4.5748 0
      vertex 1.42148 -4.37486 28
      vertex -0.480831 -4.5748 28
    endloop
  endfacet
  facet normal 0.104528 -0.994522 0
    outer loop
      vertex 1.42148 -4.37486 28
      vertex -0.480831 -4.5748 0
      vertex 1.42148 -4.37486 0
    endloop
  endfacet
  facet normal 0.499999 -0.866026 0
    outer loop
      vertex 1.42148 -4.37486 0
      vertex 3.078 -3.41847 28
      vertex 1.42148 -4.37486 28
    endloop
  endfacet
  facet normal 0.499999 -0.866026 0
    outer loop
      vertex 3.078 -3.41847 28
      vertex 1.42148 -4.37486 0
      vertex 3.078 -3.41847 0
    endloop
  endfacet
  facet normal 0.809017 -0.587785 0
    outer loop
      vertex 3.078 -3.41847 28
      vertex 4.20231 -1.87099 0
      vertex 4.20231 -1.87099 28
    endloop
  endfacet
  facet normal 0.809017 -0.587785 0
    outer loop
      vertex 4.20231 -1.87099 0
      vertex 3.078 -3.41847 28
      vertex 3.078 -3.41847 0
    endloop
  endfacet
  facet normal 0.978148 -0.207911 0
    outer loop
      vertex 4.20231 -1.87099 28
      vertex 4.6 0 0
      vertex 4.6 0 28
    endloop
  endfacet
  facet normal 0.978148 -0.207911 0
    outer loop
      vertex 4.6 0 0
      vertex 4.20231 -1.87099 28
      vertex 4.20231 -1.87099 0
    endloop
  endfacet
  facet normal 0 0 -1
    outer loop
      vertex 4.20231 -1.87099 0
      vertex 4.20231 1.87099 0
      vertex 4.6 0 0
    endloop
  endfacet
  facet normal 0 0 -1
    outer loop
      vertex 3.078 -3.41847 0
      vertex 4.20231 1.87099 0
      vertex 4.20231 -1.87099 0
    endloop
  endfacet
  facet normal 0 0 -1
    outer loop
      vertex 3.078 -3.41847 0
      vertex 3.078 3.41847 0
      vertex 4.20231 1.87099 0
    endloop
  endfacet
  facet normal 0 0 -1
    outer loop
      vertex 1.42148 -4.37486 0
      vertex 3.078 3.41847 0
      vertex 3.078 -3.41847 0
    endloop
  endfacet
  facet normal 0 0 -1
    outer loop
      vertex 1.42148 -4.37486 0
      vertex 1.42148 4.37486 0
      vertex 3.078 3.41847 0
    endloop
  endfacet
  facet normal 0 0 -1
    outer loop
      vertex -0.480831 -4.5748 0
      vertex 1.42148 4.37486 0
      vertex 1.42148 -4.37486 0
    endloop
  endfacet
  facet normal 0 0 -1
    outer loop
      vertex -0.480831 -4.5748 0
      vertex -0.480831 4.5748 0
      vertex 1.42148 4.37486 0
    endloop
  endfacet
  facet normal 0 0 -1
    outer loop
      vertex -2.3 -3.98372 0
      vertex -0.480831 4.5748 0
      vertex -0.480831 -4.5748 0
    endloop
  endfacet
  facet normal 0 0 -1
    outer loop
      vertex -2.3 -3.98372 0
      vertex -2.3 3.98372 0
      vertex -0.480831 4.5748 0
    endloop
  endfacet
  facet normal 0 0 -1
    outer loop
      vertex -3.72148 -2.70381 0
      vertex -2.3 3.98372 0
      vertex -2.3 -3.98372 0
    endloop
  endfacet
  facet normal 0 0 -1
    outer loop
      vertex -3.72148 -2.70381 0
      vertex -3.72148 2.70381 0
      vertex -2.3 3.98372 0
    endloop
  endfacet
  facet normal 0 0 -1
    outer loop
      vertex -4.49948 -0.956394 0
      vertex -3.72148 2.70381 0
      vertex -3.72148 -2.70381 0
    endloop
  endfacet
  facet normal 0 0 -1
    outer loop
      vertex -3.72148 2.70381 0
      vertex -4.49948 -0.956394 0
      vertex -4.49948 0.956394 0
    endloop
  endfacet
  facet normal 0 0 1
    outer loop
      vertex 4.20231 1.87099 28
      vertex 4.20231 -1.87099 28
      vertex 4.6 0 28
    endloop
  endfacet
  facet normal 0 0 1
    outer loop
      vertex 3.078 3.41847 28
      vertex 4.20231 -1.87099 28
      vertex 4.20231 1.87099 28
    endloop
  endfacet
  facet normal 0 0 1
    outer loop
      vertex 3.078 3.41847 28
      vertex 3.078 -3.41847 28
      vertex 4.20231 -1.87099 28
    endloop
  endfacet
  facet normal 0 0 1
    outer loop
      vertex 1.42148 4.37486 28
      vertex 3.078 -3.41847 28
      vertex 3.078 3.41847 28
    endloop
  endfacet
  facet normal 0 0 1
    outer loop
      vertex 1.42148 4.37486 28
      vertex 1.42148 -4.37486 28
      vertex 3.078 -3.41847 28
    endloop
  endfacet
  facet normal 0 0 1
    outer loop
      vertex -0.480831 4.5748 28
      vertex 1.42148 -4.37486 28
      vertex 1.42148 4.37486 28
    endloop
  endfacet
  facet normal 0 0 1
    outer loop
      vertex -0.480831 4.5748 28
      vertex -0.480831 -4.5748 28
      vertex 1.42148 -4.37486 28
    endloop
  endfacet
  facet normal -0 0 1
    outer loop
      vertex -2.3 3.98372 28
      vertex -0.480831 -4.5748 28
      vertex -0.480831 4.5748 28
    endloop
  endfacet
  facet normal 0 0 1
    outer loop
      vertex -2.3 3.98372 28
      vertex -2.3 -3.98372 28
      vertex -0.480831 -4.5748 28
    endloop
  endfacet
  facet normal -0 0 1
    outer loop
      vertex -3.72148 2.70381 28
      vertex -2.3 -3.98372 28
      vertex -2.3 3.98372 28
    endloop
  endfacet
  facet normal 0 0 1
    outer loop
      vertex -3.72148 2.70381 28
      vertex -3.72148 -2.70381 28
      vertex -2.3 -3.98372 28
    endloop
  endfacet
  facet normal -0 0 1
    outer loop
      vertex -4.49948 0.956394 28
      vertex -3.72148 -2.70381 28
      vertex -3.72148 2.70381 28
    endloop
  endfacet
  facet normal 0 0 1
    outer loop
      vertex -3.72148 -2.70381 28
      vertex -4.49948 0.956394 28
      vertex -4.49948 -0.956394 28
    endloop
  endfacet
endsolid OpenSCAD_Model
